mtllib lego1x1_red.mtl
o lego1x1_red_1
v -2.34 0 -0.534
v -2.34 1.6 -0.534
v -2.4 0 0
v -2.4 1.6 0
v -2.34 0 0.534
v -2.34 1.6 0.534
v -2.162 0 1.041
v -2.162 1.6 1.041
v -1.876 0 1.496
v -1.876 1.6 1.496
v -1.496 0 1.876
v -1.496 1.6 1.876
v -1.041 0 2.162
v -1.041 1.6 2.162
v -0.534 0 2.34
v -0.534 1.6 2.34
v 0 0 2.4
v 0 1.6 2.4
v 0.534 0 2.34
v 0.534 1.6 2.34
v 1.041 0 2.162
v 1.041 1.6 2.162
v 1.496 0 1.876
v 1.496 1.6 1.876
v 1.876 0 1.496
v 1.876 1.6 1.496
v 2.162 0 1.041
v 2.162 1.6 1.041
v 2.34 0 0.534
v 2.34 1.6 0.534
v 2.4 0 0
v 2.4 1.6 0
v 2.34 0 -0.534
v 2.34 1.6 -0.534
v 2.162 0 -1.041
v 2.162 1.6 -1.041
v 1.876 0 -1.496
v 1.876 1.6 -1.496
v 1.496 0 -1.876
v 1.496 1.6 -1.876
v 1.041 0 -2.162
v 1.041 1.6 -2.162
v 0.534 0 -2.34
v 0.534 1.6 -2.34
v 0 0 -2.4
v 0 1.6 -2.4
v -0.534 0 -2.34
v -0.534 1.6 -2.34
v -1.041 0 -2.162
v -1.041 1.6 -2.162
v -1.496 0 -1.876
v -1.496 1.6 -1.876
v -1.876 0 -1.496
v -1.876 1.6 -1.496
v -2.162 0 -1.041
v -2.162 1.6 -1.041
v 2.34 11.2 0.534
v 2.34 9.6 0.534
v 2.4 11.2 0
v 2.4 9.6 0
v 2.34 11.2 -0.534
v 2.34 9.6 -0.534
v 2.162 11.2 -1.041
v 2.162 9.6 -1.041
v 1.876 11.2 -1.496
v 1.876 9.6 -1.496
v 1.496 11.2 -1.876
v 1.496 9.6 -1.876
v 1.041 11.2 -2.162
v 1.041 9.6 -2.162
v 0.534 11.2 -2.34
v 0.534 9.6 -2.34
v 0 11.2 -2.4
v 0 9.6 -2.4
v -0.534 11.2 -2.34
v -0.534 9.6 -2.34
v -1.041 11.2 -2.162
v -1.041 9.6 -2.162
v -1.496 11.2 -1.876
v -1.496 9.6 -1.876
v -1.876 11.2 -1.496
v -1.876 9.6 -1.496
v -2.162 11.2 -1.041
v -2.162 9.6 -1.041
v -2.34 11.2 -0.534
v -2.34 9.6 -0.534
v -2.4 11.2 0
v -2.4 9.6 0
v -2.34 11.2 0.534
v -2.34 9.6 0.534
v -2.162 11.2 1.041
v -2.162 9.6 1.041
v -1.876 11.2 1.496
v -1.876 9.6 1.496
v -1.496 11.2 1.876
v -1.496 9.6 1.876
v -1.041 11.2 2.162
v -1.041 9.6 2.162
v -0.534 11.2 2.34
v -0.534 9.6 2.34
v 0 11.2 2.4
v 0 9.6 2.4
v 0.534 11.2 2.34
v 0.534 9.6 2.34
v 1.041 11.2 2.162
v 1.041 9.6 2.162
v 1.496 11.2 1.876
v 1.496 9.6 1.876
v 1.876 11.2 1.496
v 1.876 9.6 1.496
v 2.162 11.2 1.041
v 2.162 9.6 1.041
v 4 9.6 4
v -4 9.6 4
v 4 0 4
v -4 0 4
v 4 0 -4
v -4 0 -4
v 4 9.6 -4
v -4 9.6 -4
vn 0.975 0 0.223
vn 1 0 0
vn 0.975 0 -0.223
vn 0.901 0 -0.434
vn 0.782 0 -0.623
vn 0.623 0 -0.782
vn 0.434 0 -0.901
vn 0.223 0 -0.975
vn 0 0 -1
vn -0.223 0 -0.975
vn -0.434 0 -0.901
vn -0.623 0 -0.782
vn -0.782 0 -0.623
vn -0.901 0 -0.434
vn -0.975 0 -0.223
vn -1 0 0
vn -0.975 0 0.223
vn -0.901 0 0.434
vn -0.782 0 0.623
vn -0.623 0 0.782
vn -0.434 0 0.901
vn -0.223 0 0.975
vn 0 0 1
vn 0.223 0 0.975
vn 0.434 0 0.901
vn 0.623 0 0.782
vn 0.782 0 0.623
vn 0.901 0 0.434
vn 0 -1 0
vn 0 1 0
g lego1x1_red_1
usemtl lego1x1_red_color_1
f 1//1 2//1 3//2
f 3//2 2//1 4//2
f 3//2 4//2 5//3
f 5//3 4//2 6//3
f 5//3 6//3 7//4
f 7//4 6//3 8//4
f 7//4 8//4 9//5
f 9//5 8//4 10//5
f 9//5 10//5 11//6
f 11//6 10//5 12//6
f 11//6 12//6 13//7
f 13//7 12//6 14//7
f 13//7 14//7 15//8
f 15//8 14//7 16//8
f 15//8 16//8 17//9
f 17//9 16//8 18//9
f 17//9 18//9 19//10
f 19//10 18//9 20//10
f 19//10 20//10 21//11
f 21//11 20//10 22//11
f 21//11 22//11 23//12
f 23//12 22//11 24//12
f 23//12 24//12 25//13
f 25//13 24//12 26//13
f 25//13 26//13 27//14
f 27//14 26//13 28//14
f 27//14 28//14 29//15
f 29//15 28//14 30//15
f 29//15 30//15 31//16
f 31//16 30//15 32//16
f 31//16 32//16 33//17
f 33//17 32//16 34//17
f 33//17 34//17 35//18
f 35//18 34//17 36//18
f 35//18 36//18 37//19
f 37//19 36//18 38//19
f 37//19 38//19 39//20
f 39//20 38//19 40//20
f 39//20 40//20 41//21
f 41//21 40//20 42//21
f 41//21 42//21 43//22
f 43//22 42//21 44//22
f 43//22 44//22 45//23
f 45//23 44//22 46//23
f 45//23 46//23 47//24
f 47//24 46//23 48//24
f 47//24 48//24 49//25
f 49//25 48//24 50//25
f 49//25 50//25 51//26
f 51//26 50//25 52//26
f 51//26 52//26 53//27
f 53//27 52//26 54//27
f 53//27 54//27 55//28
f 55//28 54//27 56//28
f 55//28 56//28 1//1
f 1//1 56//28 2//1
f 20//29 16//29 22//29
f 22//29 16//29 14//29
f 22//29 14//29 24//29
f 24//29 14//29 12//29
f 24//29 12//29 26//29
f 26//29 12//29 10//29
f 26//29 10//29 28//29
f 28//29 10//29 8//29
f 28//29 8//29 30//29
f 30//29 8//29 6//29
f 30//29 6//29 32//29
f 32//29 6//29 4//29
f 32//29 4//29 34//29
f 34//29 4//29 2//29
f 34//29 2//29 36//29
f 36//29 2//29 56//29
f 36//29 56//29 38//29
f 38//29 56//29 54//29
f 38//29 54//29 40//29
f 40//29 54//29 52//29
f 40//29 52//29 42//29
f 42//29 52//29 50//29
f 42//29 50//29 44//29
f 44//29 50//29 48//29
f 44//29 48//29 46//29
f 20//29 18//29 16//29
f 57//1 58//1 59//2
f 59//2 58//1 60//2
f 59//2 60//2 61//3
f 61//3 60//2 62//3
f 61//3 62//3 63//4
f 63//4 62//3 64//4
f 63//4 64//4 65//5
f 65//5 64//4 66//5
f 65//5 66//5 67//6
f 67//6 66//5 68//6
f 67//6 68//6 69//7
f 69//7 68//6 70//7
f 69//7 70//7 71//8
f 71//8 70//7 72//8
f 71//8 72//8 73//9
f 73//9 72//8 74//9
f 73//9 74//9 75//10
f 75//10 74//9 76//10
f 75//10 76//10 77//11
f 77//11 76//10 78//11
f 77//11 78//11 79//12
f 79//12 78//11 80//12
f 79//12 80//12 81//13
f 81//13 80//12 82//13
f 81//13 82//13 83//14
f 83//14 82//13 84//14
f 83//14 84//14 85//15
f 85//15 84//14 86//15
f 85//15 86//15 87//16
f 87//16 86//15 88//16
f 87//16 88//16 89//17
f 89//17 88//16 90//17
f 89//17 90//17 91//18
f 91//18 90//17 92//18
f 91//18 92//18 93//19
f 93//19 92//18 94//19
f 93//19 94//19 95//20
f 95//20 94//19 96//20
f 95//20 96//20 97//21
f 97//21 96//20 98//21
f 97//21 98//21 99//22
f 99//22 98//21 100//22
f 99//22 100//22 101//23
f 101//23 100//22 102//23
f 101//23 102//23 103//24
f 103//24 102//23 104//24
f 103//24 104//24 105//25
f 105//25 104//24 106//25
f 105//25 106//25 107//26
f 107//26 106//25 108//26
f 107//26 108//26 109//27
f 109//27 108//26 110//27
f 109//27 110//27 111//28
f 111//28 110//27 112//28
f 111//28 112//28 57//1
f 57//1 112//28 58//1
f 71//30 75//30 69//30
f 69//30 75//30 77//30
f 69//30 77//30 67//30
f 67//30 77//30 79//30
f 67//30 79//30 65//30
f 65//30 79//30 81//30
f 65//30 81//30 63//30
f 63//30 81//30 83//30
f 63//30 83//30 61//30
f 61//30 83//30 85//30
f 61//30 85//30 59//30
f 59//30 85//30 87//30
f 59//30 87//30 57//30
f 57//30 87//30 89//30
f 57//30 89//30 111//30
f 111//30 89//30 91//30
f 111//30 91//30 109//30
f 109//30 91//30 93//30
f 109//30 93//30 107//30
f 107//30 93//30 95//30
f 107//30 95//30 105//30
f 105//30 95//30 97//30
f 105//30 97//30 103//30
f 103//30 97//30 99//30
f 103//30 99//30 101//30
f 71//30 73//30 75//30
f 113//23 114//23 115//23
f 115//23 114//23 116//23
f 117//9 118//9 119//9
f 119//9 118//9 120//9
f 5//29 116//29 3//29
f 3//29 116//29 118//29
f 3//29 118//29 1//29
f 1//29 118//29 55//29
f 5//29 7//29 116//29
f 116//29 7//29 9//29
f 116//29 9//29 11//29
f 11//29 13//29 116//29
f 116//29 13//29 15//29
f 116//29 15//29 17//29
f 116//29 17//29 115//29
f 115//29 17//29 19//29
f 115//29 19//29 21//29
f 21//29 23//29 115//29
f 115//29 23//29 25//29
f 115//29 25//29 27//29
f 27//29 29//29 115//29
f 115//29 29//29 31//29
f 115//29 31//29 117//29
f 117//29 31//29 33//29
f 117//29 33//29 35//29
f 35//29 37//29 117//29
f 117//29 37//29 39//29
f 117//29 39//29 41//29
f 41//29 43//29 117//29
f 117//29 43//29 45//29
f 117//29 45//29 118//29
f 118//29 45//29 47//29
f 118//29 47//29 49//29
f 49//29 51//29 118//29
f 118//29 51//29 53//29
f 118//29 53//29 55//29
f 114//16 120//16 116//16
f 116//16 120//16 118//16
f 86//30 120//30 88//30
f 88//30 120//30 114//30
f 88//30 114//30 90//30
f 90//30 114//30 92//30
f 86//30 84//30 120//30
f 120//30 84//30 82//30
f 120//30 82//30 80//30
f 80//30 78//30 120//30
f 120//30 78//30 76//30
f 120//30 76//30 74//30
f 120//30 74//30 119//30
f 119//30 74//30 72//30
f 119//30 72//30 70//30
f 70//30 68//30 119//30
f 119//30 68//30 66//30
f 119//30 66//30 64//30
f 64//30 62//30 119//30
f 119//30 62//30 60//30
f 119//30 60//30 113//30
f 113//30 60//30 58//30
f 113//30 58//30 112//30
f 112//30 110//30 113//30
f 113//30 110//30 108//30
f 113//30 108//30 106//30
f 106//30 104//30 113//30
f 113//30 104//30 102//30
f 113//30 102//30 114//30
f 114//30 102//30 100//30
f 114//30 100//30 98//30
f 98//30 96//30 114//30
f 114//30 96//30 94//30
f 114//30 94//30 92//30
f 115//2 117//2 113//2
f 113//2 117//2 119//2
l 3 5
l 5 7
l 7 9
l 9 11
l 11 13
l 13 15
l 15 17
l 17 19
l 19 21
l 21 23
l 23 25
l 25 27
l 27 29
l 29 31
l 31 33
l 33 35
l 35 37
l 37 39
l 39 41
l 41 43
l 43 45
l 45 47
l 47 49
l 49 51
l 51 53
l 53 55
l 55 1
l 1 3
l 32 34
l 34 36
l 36 38
l 38 40
l 40 42
l 42 44
l 44 46
l 46 48
l 48 50
l 50 52
l 52 54
l 54 56
l 56 2
l 2 4
l 4 6
l 6 8
l 8 10
l 10 12
l 12 14
l 14 16
l 16 18
l 18 20
l 20 22
l 22 24
l 24 26
l 26 28
l 28 30
l 30 32
l 59 61
l 61 63
l 63 65
l 65 67
l 67 69
l 69 71
l 71 73
l 73 75
l 75 77
l 77 79
l 79 81
l 81 83
l 83 85
l 85 87
l 87 89
l 89 91
l 91 93
l 93 95
l 95 97
l 97 99
l 99 101
l 101 103
l 103 105
l 105 107
l 107 109
l 109 111
l 111 57
l 57 59
l 88 86
l 86 84
l 84 82
l 82 80
l 80 78
l 78 76
l 76 74
l 74 72
l 72 70
l 70 68
l 68 66
l 66 64
l 64 62
l 62 60
l 60 58
l 58 112
l 112 110
l 110 108
l 108 106
l 106 104
l 104 102
l 102 100
l 100 98
l 98 96
l 96 94
l 94 92
l 92 90
l 90 88
l 115 113
l 113 114
l 114 116
l 116 115
l 119 117
l 117 118
l 118 120
l 120 119
l 116 118
l 115 117
l 114 120
l 113 119
